<svg width="512" height="512" xmlns="http://www.w3.org/2000/svg">
 <title/>

 <g>
  <title>background</title>
  <rect fill="none" id="canvas_background" height="402" width="582" y="-1" x="-1"/>
 </g>
 <g>
  <title>Layer 1</title>
  <ellipse stroke="#ff0000" ry="102.591357" rx="102.475082" id="svg_7" cy="212.744185" cx="169.950168" stroke-width="null" fill="#ff0000"/>
  <ellipse stroke="#ff0000" ry="102.591357" rx="102.475082" id="svg_8" cy="214.87043" cx="340.049839" stroke-width="null" fill="#ff0000"/>
  <ellipse stroke="#ff0000" ry="102.591357" rx="143.936866" id="svg_9" cy="289.289038" cx="253.936878" stroke-width="null" fill="#ff0000"/>
  <path id="svg_1" d="m255.13,420.36a15.07,15.07 0 0 1 -3.65,-0.45c-53.3,-13.37 -97.4,-36.17 -131.06,-67.77c-28.93,-27.14 -49.51,-60.6 -59.5,-96.74c-7.2,-26 -8.71,-52.67 -4.36,-77s14.11,-44.65 28.26,-58.8c35.66,-35.66 89,-36.13 126,-20.79c16.93,7 31.31,17.42 41.6,30.1q1.39,1.71 2.67,3.47q1.29,-1.76 2.68,-3.47c10.28,-12.68 24.67,-23.09 41.6,-30.1c37,-15.34 90.38,-14.87 126,20.79c14.15,14.15 23.92,34.48 28.26,58.8s2.84,51 -4.36,77c-10,36.14 -30.57,69.59 -59.5,96.74c-33.66,31.6 -77.76,54.4 -131.07,67.77a15,15 0 0 1 -3.57,0.45zm-92.62,-301.42c-23.67,0 -44,9.35 -56.48,21.83c-21.03,21.08 -27.73,64.93 -16.2,106.64c8.53,30.82 26.2,59.48 51.12,82.86c29.14,27.35 67.54,47.39 114.18,59.61c46.65,-12.22 85.05,-32.26 114.19,-59.61c24.91,-23.38 42.59,-52 51.11,-82.86c11.54,-41.71 4.88,-85.56 -16.19,-106.64c-18.64,-18.63 -54.73,-30.28 -93.35,-14.28c-25.52,10.57 -40.76,29.63 -40.76,51a15,15 0 0 1 -30,0c0,-21.37 -15.23,-40.43 -40.75,-51a96.1,96.1 0 0 0 -36.87,-7.55z"/>
 </g>
</svg>