<svg width="48" height="48" xmlns="http://www.w3.org/2000/svg">

 <g>
  <title>background</title>
  <rect fill="none" id="canvas_background" height="50" width="50" y="-1" x="-1"/>
 </g>
 <g>
  <title>Layer 1</title>
  <path fill="#ffffff" stroke="#b38534" stroke-opacity="0" id="svg_3" d="m36,48l-24,0c-0.522,0 -0.957,-0.402 -0.997,-0.923l-1.933,-25.131c-3.975,-0.462 -7.07,-3.849 -7.07,-7.946c0,-4.419 3.678,-8.151 8.032,-8.151c0.91,0 1.803,0.177 2.636,0.52c1.404,-3.86 5.771,-6.369 11.332,-6.369c5.224,0 8.878,2.112 11.14,6.45c0.887,-0.396 1.848,-0.602 2.828,-0.602c4.354,0.001 8.032,3.733 8.032,8.152c0,4.097 -3.095,7.484 -7.07,7.946l-1.933,25.131c-0.04,0.521 -0.475,0.923 -0.997,0.923zm-23.074,-2l22.147,0l1.929,-25.077c0.041,-0.521 0.476,-0.923 0.998,-0.923c3.309,0 6,-2.691 6,-6c0,-3.625 -3.179,-6.151 -6.032,-6.151c-0.982,0 -1.899,0.274 -2.724,0.817c-0.245,0.161 -0.551,0.207 -0.832,0.123c-0.282,-0.083 -0.513,-0.285 -0.632,-0.555c-1.882,-4.253 -4.989,-6.234 -9.78,-6.234c-5.157,0 -9.059,2.415 -9.71,6.009c-0.06,0.33 -0.281,0.608 -0.59,0.74c-0.308,0.134 -0.663,0.102 -0.943,-0.083c-0.825,-0.543 -1.742,-0.817 -2.724,-0.817c-2.854,0 -6.033,2.526 -6.033,6.151c0,3.309 2.691,6 6,6c0.522,0 0.957,0.402 0.997,0.923l1.929,25.077z"/>
  <path fill="#ffffff" id="svg_5" d="m36.625,40l-25.25,0c-0.552,0 -1,-0.447 -1,-1s0.448,-1 1,-1l25.25,0c0.552,0 1,0.447 1,1s-0.448,1 -1,1z"/>
  <path fill="#ffffff" id="svg_7" d="m19,39.817629c-0.552,0 -1,-0.447 -1,-1l0,-8c0,-0.553 0.448,-1 1,-1s1,0.447 1,1l0,8c0,0.553 -0.448,1 -1,1z"/>
  <path fill="#ffffff" id="svg_9" d="m23.908815,39.908815c-0.552,0 -1,-0.447 -1,-1l0,-10c0,-0.553 0.448,-1 1,-1s1,0.447 1,1l0,10c0,0.553 -0.448,1 -1,1z"/>
  <path fill="#ffffff" id="svg_11" d="m29,39.908815c-0.552,0 -1,-0.447 -1,-1l0,-8c0,-0.553 0.448,-1 1,-1s1,0.447 1,1l0,8c0,0.553 -0.448,1 -1,1z"/>
 </g>
</svg>